<?xml version="1.0" encoding="UTF-8" standalone="no"?>
<svg
   version="1.1"
   viewBox="0 0 449.96289 80.388863"
   id="svg142"
   sodipodi:docname="Cashclick_logo.svg"
   inkscape:version="1.2.1 (9c6d41e410, 2022-07-14)"
   width="449.96289"
   height="80.388863"
   inkscape:export-filename="Cashclick_logo_letras.svg"
   inkscape:export-xdpi="96"
   inkscape:export-ydpi="96"
   xmlns:inkscape="http://www.inkscape.org/namespaces/inkscape"
   xmlns:sodipodi="http://sodipodi.sourceforge.net/DTD/sodipodi-0.dtd"
   xmlns="http://www.w3.org/2000/svg"
   xmlns:svg="http://www.w3.org/2000/svg">
  <defs
     id="defs146" />
  <sodipodi:namedview
     id="namedview144"
     pagecolor="#505050"
     bordercolor="#eeeeee"
     borderopacity="1"
     inkscape:showpageshadow="0"
     inkscape:pageopacity="0"
     inkscape:pagecheckerboard="0"
     inkscape:deskcolor="#505050"
     showgrid="false"
     inkscape:zoom="1.3659309"
     inkscape:cx="138.36717"
     inkscape:cy="180.09695"
     inkscape:window-width="1920"
     inkscape:window-height="1057"
     inkscape:window-x="-8"
     inkscape:window-y="-8"
     inkscape:window-maximized="1"
     inkscape:current-layer="svg142" />
  <path
     fill="#1d4487"
     d="m 185.78302,25.785295 q 0.008,0.80992 0.72002,0.42994 c 12.89993,-6.92001 31.22995,-4.06006 32.64985,13.49996 q 0.5501,6.80001 -0.008,29.69997 -0.12004,4.55981 -1.28005,6.51005 c -2.68993,4.51018 -10.85001,4.33995 -13.18993,-0.36002 q -0.94005,-1.89995 -0.92002,-6.68998 c 0.0193,-6.97991 1.56992,-22.83995 -1.74995,-28.63983 -3.27011,-5.71013 -12.49009,-5.31033 -15.23,0.71982 q -0.96011,2.10996 -0.98011,6.94007 -0.0497,10.21994 -0.0398,20.43989 0.008,4.84007 -0.92993,6.74003 c -4.01988,8.13009 -14.9399,3.95004 -14.98998,-4.85994 q -0.24999,-45.42002 -0.008,-61.17005 c 0.19008,-12.15998 15.94988,-11.45 15.92989,-1.50996 q -0.0292,9.32993 0.0301,18.25005 z"
     id="path112"
     style="stroke-width:0.999954" />
  <rect
     fill="#03b1e0"
     x="278.07309"
     y="0.095241003"
     width="15.679998"
     height="79.139954"
     rx="7.6700025"
     id="rect114"
     style="stroke-width:0.999954" />
  <circle
     fill="#03b1e0"
     cx="311.08295"
     cy="9.455287"
     r="9.4299946"
     id="circle116"
     style="stroke-width:0.999954" />
  <path
     fill="#03b1e0"
     d="m 394.54294,41.245265 q 7.21996,-6.99005 14.26001,-14.18006 c 3.61997,-3.70008 9.68996,-4.6 13.02992,-0.10998 4.97002,6.67002 -7.79995,16.28002 -12.29993,20.3298 a 0.84999983,0.84999983 0 0 0 -0.10003,1.1502 q 7.41998,9.40004 14.90992,19.01999 c 6.89003,8.8698 -6.78992,16.53015 -13.50998,7.77003 q -8.29998,-10.85005 -15.91987,-20.87 -1.25005,-1.64001 -1.20001,0.41996 c 0.12999,5.25003 1.14,16.42007 -1.36997,20.74 -3.97013,6.84 -14.52987,3.78 -14.55008,-4.29 q -0.0598,-29.71003 -0.0295,-59.42992 0.008,-4.99002 0.71003,-6.9201 c 1.86006,-5.08 8.21006,-6.37001 12.18999,-2.94991 2.53007,2.17998 3.15003,5.17985 3.09999,8.72973 q -0.20995,15.15022 0.14011,30.32022 0.0189,0.86999 0.64001,0.27004 z"
     id="path118"
     style="stroke-width:0.999954" />
  <path
     fill="#1d4487"
     d="m 29.323076,62.725205 c 5.499999,2.19004 12.199994,0.44005 18.739996,-1.48002 10.269994,-3.01993 14.05999,7.86005 6.759984,13.60003 -11.979986,9.42001 -33.559973,6.04997 -43.909967,-4.21 -14.7299991,-14.59002 -14.6799997,-43.49995 0.949991,-57.53001 q 7.220004,-6.47002 17.670002,-8.28997 c 7.389984,-1.30001 27.03998,-0.85007 28.199986,10.06998 0.409998,3.81998 -1.419998,7.61001 -5.390002,8.34997 -5.029997,0.94009 -10.739997,-3.45996 -16.539992,-3.19992 -21.769992,0.95999 -24.27999,35.59988 -6.479998,42.68994 z"
     id="path120"
     style="stroke-width:0.999954" />
  <path
     fill="#1d4487"
     d="m 145.05305,59.195125 c -10.76005,-3.79986 -27.05021,-8.62992 -20.77993,-24.45001 5.07989,-12.81991 20.49992,-14.74988 31.67988,-9.1599 5.59003,2.80007 8.69025,10.28004 2.52997,14.38007 -3.2499,2.16995 -8.99989,-1.35005 -12.42993,-2.55009 -1.46998,-0.51002 -2.87002,-0.33995 -4.41996,-0.37998 -3.18025,-0.10017 -4.48005,4.30003 -1.66003,5.52998 7.48002,3.25025 18.66002,5.7602 22.05998,14.20998 q 3.08999,7.67007 -1.47003,14.80999 c -7.12001,11.17004 -25.27996,10.28004 -34.99999,4.15025 -7.16988,-4.52002 -3.58994,-17.02016 5.63997,-13.60022 4.95006,1.83005 9.82005,5.11992 15.31001,3.38004 a 1.129999,1.1399998 4 0 0 0.65998,-0.58012 q 2.11006,-4.24975 -2.11992,-5.73999 z"
     id="path122"
     style="stroke-width:0.999954" />
  <path
     fill="#1d4487"
     d="m 98.823129,74.885145 q -3.390123,4.17003 -8.800171,4.98005 c -35.479894,5.34022 -38.619887,-57.08995 -3.509899,-57.11997 q 7.680002,-0.008 12.71017,5.59002 a 0.45999984,0.45999984 0 0 0 0.73985,-0.0804 c 3.009911,-5.17991 10.249961,-6.19997 13.389931,-1.25997 q 1.39002,2.18 1.40003,6.98994 0.0391,17.90009 0.0699,35.80008 c 0.0192,9.60999 -8.72006,12.6499 -14.880091,5.1 a 0.71999992,0.71999992 0 0 0 -1.11992,0 z m -10.533875,-9.82093 a 13.599987,10.960014 89.3 0 0 10.792995,-13.73303 13.599987,10.960014 89.3 0 0 -11.125419,-13.46503 13.599987,10.960014 89.3 0 0 -10.792973,13.733 13.599987,10.960014 89.3 0 0 11.125397,13.46506 z"
     id="path124"
     style="stroke-width:0.999954" />
  <path
     fill="#03b1e0"
     d="m 255.953,38.095195 c -12.68001,-1.11997 -17.47004,13.76997 -11.03999,22.65002 5.45997,7.53006 13.64001,3.46 20.79003,1.29996 q 0.47997,-0.14987 0.93,0.0699 c 8.6199,4.10001 5.51997,13.38002 -2.14009,15.89001 q -20.73996,6.77991 -32.15988,-8.06995 c -8.59003,-11.17023 -7.88007,-29.42005 2.05992,-39.48009 7.88001,-7.97998 19.99001,-9.55999 30.34,-5.51001 q 4.39004,1.72007 6.12001,4.39004 c 2.29995,3.55998 0.77016,9.88004 -3.80001,11.32986 -3.33985,1.06007 -8.58999,-2.35003 -11.09999,-2.56992 z"
     id="path126"
     style="stroke-width:0.999954" />
  <path
     fill="#03b1e0"
     d="m 351.00294,80.035195 c -33.18982,-2.20999 -33.65994,-52.47988 -2.19996,-56.93997 7.15003,-1.02 25.96991,1.22986 21.93994,13.23997 -3.01993,9.02009 -12.47996,1.17001 -18.25998,1.76 -15.87997,1.61005 -14.14985,29.31004 2.52001,26.91006 4.40004,-0.64007 11.28002,-5.59002 14.88998,0.12995 6.81994,10.80002 -11.45999,15.39006 -18.88999,14.89999 z"
     id="path128"
     style="stroke-width:0.999954" />
  <rect
     fill="#03b1e0"
     x="303.09296"
     y="23.825253"
     width="15.679998"
     height="55.399979"
     rx="7.5999961"
     id="rect130"
     style="stroke-width:0.999954" />
  <path
     fill="#03b1e0"
     d="m 449.96288,33.915165 a 10.06,10.06 0 0 1 -10.05998,10.06007 10.06,10.06 0 0 1 -10.05997,-10.06007 10.06,10.06 0 0 1 10.05997,-10.05998 10.06,10.06 0 0 1 10.05998,10.05998 z m -1.74004,0.0299 a 8.3299967,8.3299967 0 0 0 -8.32994,-8.3302 8.3299967,8.3299967 0 0 0 -8.32995,8.3302 8.3299967,8.3299967 0 0 0 8.32995,8.33 8.3299967,8.3299967 0 0 0 8.32994,-8.33 z"
     id="path132"
     style="stroke-width:0.999954" />
  <path
     fill="#03b1e0"
     d="m 439.54295,35.295175 a 1.0899999,1.0899999 0 0 0 -1.80023,0.86999 q 0.0499,1.40004 0.008,2.85017 a 0.99010781,1.0001089 45.6 0 1 -1.99005,-0.0197 v -9.69998 q 0,-0.5399 0.49997,-0.74002 c 4.38008,-1.8099 12.61001,1.42017 5.84012,6.11012 a 0.86999974,0.86999974 0 0 0 -0.21006,1.21999 l 2.39992,3.42995 q 0.34013,0.48006 -0.22992,0.62005 -1.50002,0.36993 -1.99994,-0.97007 -0.84015,-2.2399 -2.52003,-3.66996 z m 3.20153,-4.35303 a 1.0699991,1.0699991 0 0 0 -1.0456,-1.09398 l -2.85904,-0.0645 a 1.0699991,1.0699991 0 0 0 -1.09401,1.04535 l -0.0247,1.0797 a 1.0699991,1.0699991 0 0 0 1.0456,1.09393 l 2.85928,0.0649 a 1.0699991,1.0699991 0 0 0 1.09405,-1.04544 z"
     id="path136"
     style="stroke-width:0.999954" />
</svg>
