<?xml version="1.0" ?><svg height="32" id="icon" viewBox="0 0 32 32" width="32" xmlns="http://www.w3.org/2000/svg"><defs><style>
      .cls-1 {
        fill: none;
      }
    </style></defs><rect height="5" width="2" x="15" y="2"/><rect height="1.9998" transform="translate(1.5191 19.3744) rotate(-45)" width="4.958" x="21.6675" y="6.8536"/><rect height="2" width="5" x="25" y="15"/><rect height="4.958" transform="translate(-10.0018 24.1465) rotate(-45)" width="1.9998" x="23.1466" y="21.6675"/><rect height="5" width="2" x="15" y="25"/><rect height="1.9998" transform="translate(-14.7739 12.6256) rotate(-45)" width="4.958" x="5.3745" y="23.1466"/><rect height="2" width="5" x="2" y="15"/><rect height="4.958" transform="translate(-3.253 7.8535) rotate(-45)" width="1.9998" x="6.8536" y="5.3745"/><path d="M16,12a4,4,0,1,1-4,4,4.0045,4.0045,0,0,1,4-4m0-2a6,6,0,1,0,6,6,6,6,0,0,0-6-6Z"/><rect class="cls-1" data-name="&lt;Transparent Rectangle&gt;" height="32" id="_Transparent_Rectangle_" width="32"/></svg>