<?xml version="1.0" encoding="UTF-8" standalone="no"?>
<svg
   version="1.1"
   viewBox="0.00 0.00 454.00 454.00"
   id="svg142"
   sodipodi:docname="dark-2x (2).svg"
   inkscape:version="1.2.1 (9c6d41e410, 2022-07-14)"
   xmlns:inkscape="http://www.inkscape.org/namespaces/inkscape"
   xmlns:sodipodi="http://sodipodi.sourceforge.net/DTD/sodipodi-0.dtd"
   xmlns="http://www.w3.org/2000/svg"
   xmlns:svg="http://www.w3.org/2000/svg">
  <defs
     id="defs146" />
  <sodipodi:namedview
     id="namedview144"
     pagecolor="#505050"
     bordercolor="#eeeeee"
     borderopacity="1"
     inkscape:showpageshadow="0"
     inkscape:pageopacity="0"
     inkscape:pagecheckerboard="0"
     inkscape:deskcolor="#505050"
     showgrid="false"
     inkscape:zoom="1.3659309"
     inkscape:cx="138.36717"
     inkscape:cy="180.09695"
     inkscape:window-width="1920"
     inkscape:window-height="1057"
     inkscape:window-x="-8"
     inkscape:window-y="-8"
     inkscape:window-maximized="1"
     inkscape:current-layer="svg142" />
  <g
     stroke-width="2"
     fill="none"
     stroke-linecap="butt"
     id="g86"
     transform="translate(5.6770204e-7,3.1435173e-5)">
    <path
       stroke="#034963"
       vector-effect="non-scaling-stroke"
       d="M 131.85,151.28 Q 127,175.27 134.2,199.1"
       id="path2" />
    <path
       stroke="#025970"
       vector-effect="non-scaling-stroke"
       d="m 134.2,199.1 c 16.68,55.93 75.73,81.53 128.92,60.3 13.3,-5.31 31.44,-17.37 34.15,-32.65 2.63,-14.84 -8.24,-31.62 -23.63,-33.67 q -7.83,-1.05 -16,2.7"
       id="path4" />
    <path
       stroke="#034963"
       vector-effect="non-scaling-stroke"
       d="m 257.64,195.78 q -4.14,-11.05 -12.91,-17.14 c -7.97,-5.54 -17.73,-6.31 -26.64,-2.74 -3.77,1.51 -8.23,5.13 -11.61,6.59 -14.74,6.38 -24.27,-14.01 -11.83,-22.35 4.91,-3.29 10.24,-1.58 15.21,1.44 7.69,4.67 14.68,7.59 23.97,5.95 q 15.17,-2.66 22.16,-17.81 1.11,-2.39 1,-3.74"
       id="path6" />
    <path
       stroke="#0f2244"
       vector-effect="non-scaling-stroke"
       d="m 256.99,145.98 q 0.01,-0.26 0.49,-0.25"
       id="path8" />
    <path
       stroke="#034963"
       vector-effect="non-scaling-stroke"
       d="m 257.48,145.73 q 0.83,-0.03 0.29,0.22"
       id="path10" />
    <path
       stroke="#025970"
       vector-effect="non-scaling-stroke"
       d="m 257.77,145.95 c 17.84,6.48 34.8,-1.4 39.02,-19.44 3.16,-13.53 -5.46,-25.91 -15.51,-34.04 -24.33,-19.71 -59.7,-22.64 -88.35,-12.56 -31.72,11.16 -53.92,38.9 -61.08,71.37"
       id="path12" />
    <path
       stroke="#04a1d3"
       vector-effect="non-scaling-stroke"
       d="m 257.77,145.95 c 1.41,-4.11 0.74,-7.03 1.54,-11.19"
       id="path14" />
    <path
       stroke="#025970"
       vector-effect="non-scaling-stroke"
       d="m 259.31,134.76 c 10.3,5.69 21.08,3.25 25.93,-7.51 3.63,-8.04 0.49,-15.02 -5.39,-21.32 -15.2,-16.27 -38,-22.14 -59.91,-20.75 q -29.28,1.85 -50.48,21.12"
       id="path16" />
    <path
       stroke="#04a1d3"
       vector-effect="non-scaling-stroke"
       d="m 169.46,106.3 q -23.87,14.04 -34.98,40.14 -1.09,2.56 -1.36,4.57 -0.07,0.48 -0.55,0.52 -0.33,0.02 -0.72,-0.25"
       id="path18" />
    <path
       stroke="#034963"
       vector-effect="non-scaling-stroke"
       d="m 259.31,134.76 c -1.5,-5.2 -2.8,-9.99 -6.63,-14.94 -7.34,-9.48 -18.95,-15.83 -30.53,-18.96 q -27.51,-7.45 -52.69,5.44"
       id="path20" />
    <path
       stroke="#116ba7"
       vector-effect="non-scaling-stroke"
       d="m 257.48,145.73 c -1.26,-0.5 -8.24,-4.63 -8.6,-4.59 q -0.61,0.06 -0.07,0.36 l 8.18,4.48"
       id="path22" />
    <path
       stroke="#04a1d3"
       vector-effect="non-scaling-stroke"
       d="m 257.64,195.78 1.23,11.47"
       id="path24" />
    <path
       stroke="#034963"
       vector-effect="non-scaling-stroke"
       d="m 258.87,207.25 q -1.72,8.85 -8.15,15.71 c -20.13,21.48 -52.99,24.57 -79.83,14.21"
       id="path26" />
    <path
       stroke="#04a1d3"
       vector-effect="non-scaling-stroke"
       d="m 170.89,237.17 q -24.83,-11.37 -34.91,-37.5 -0.16,-0.41 -0.59,-0.45 l -1.19,-0.12"
       id="path28" />
    <path
       stroke="#025970"
       vector-effect="non-scaling-stroke"
       d="m 170.89,237.17 c 22.55,18.49 52.41,23.24 80.38,15.4 12.35,-3.46 37.99,-16.78 35.41,-32.52 -2.3,-14.01 -15.28,-20.84 -27.81,-12.8"
       id="path30" />
    <path
       stroke="#0f2244"
       vector-effect="non-scaling-stroke"
       d="m 188.02,325.75 q -0.06,-8.92 -0.03,-18.25 c 0.02,-9.94 -15.74,-10.65 -15.93,1.51 q -0.24,15.75 0.01,61.17 c 0.05,8.81 10.97,12.99 14.99,4.86 q 0.94,-1.9 0.93,-6.74 -0.01,-10.22 0.04,-20.44 0.02,-4.83 0.98,-6.94 c 2.74,-6.03 11.96,-6.43 15.23,-0.72 3.32,5.8 1.77,21.66 1.75,28.64 q -0.02,4.79 0.92,6.69 c 2.34,4.7 10.5,4.87 13.19,0.36 q 1.16,-1.95 1.28,-6.51 0.56,-22.9 0.01,-29.7 c -1.42,-17.56 -19.75,-20.42 -32.65,-13.5 q -0.71,0.38 -0.72,-0.43"
       id="path32" />
    <path
       stroke="#025970"
       vector-effect="non-scaling-stroke"
       d="m 295.99,307.73 a 7.67,7.67 0 0 0 -7.67,-7.67 h -0.34 a 7.67,7.67 0 0 0 -7.67,7.67 v 63.8 a 7.67,7.67 0 0 0 7.67,7.67 h 0.34 a 7.67,7.67 0 0 0 7.67,-7.67 v -63.8"
       id="path34" />
    <path
       stroke="#025970"
       vector-effect="non-scaling-stroke"
       d="m 322.75,309.42 a 9.43,9.43 0 0 0 -9.43,-9.43 9.43,9.43 0 0 0 -9.43,9.43 9.43,9.43 0 0 0 9.43,9.43 9.43,9.43 0 0 0 9.43,-9.43"
       id="path36" />
    <path
       stroke="#025970"
       vector-effect="non-scaling-stroke"
       d="M 396.14,340.94 Q 395.79,325.77 396,310.62 c 0.05,-3.55 -0.57,-6.55 -3.1,-8.73 -3.98,-3.42 -10.33,-2.13 -12.19,2.95 q -0.7,1.93 -0.71,6.92 -0.03,29.72 0.03,59.43 c 0.02,8.07 10.58,11.13 14.55,4.29 2.51,-4.32 1.5,-15.49 1.37,-20.74 q -0.05,-2.06 1.2,-0.42 7.62,10.02 15.92,20.87 c 6.72,8.76 20.4,1.1 13.51,-7.77 q -7.49,-9.62 -14.91,-19.02 a 0.85,0.85 0 0 1 0.1,-1.15 c 4.5,-4.05 17.27,-13.66 12.3,-20.33 -3.34,-4.49 -9.41,-3.59 -13.03,0.11 q -7.04,7.19 -14.26,14.18 -0.62,0.6 -0.64,-0.27"
       id="path38" />
    <path
       stroke="#0f2244"
       vector-effect="non-scaling-stroke"
       d="M 31.56,362.69 C 13.76,355.6 16.27,320.96 38.04,320 c 5.8,-0.26 11.51,4.14 16.54,3.2 3.97,-0.74 5.8,-4.53 5.39,-8.35 -1.16,-10.92 -20.81,-11.37 -28.2,-10.07 q -10.45,1.82 -17.67,8.29 c -15.63,14.03 -15.68,42.94 -0.95,57.53 10.35,10.26 31.93,13.63 43.91,4.21 7.3,-5.74 3.51,-16.62 -6.76,-13.6 -6.54,1.92 -13.24,3.67 -18.74,1.48"
       id="path40" />
    <path
       stroke="#0f2244"
       vector-effect="non-scaling-stroke"
       d="m 126.51,334.71 c -6.27,15.82 10.02,20.65 20.78,24.45 q 4.23,1.49 2.12,5.74 a 1.14,1.13 -86 0 1 -0.66,0.58 c -5.49,1.74 -10.36,-1.55 -15.31,-3.38 -9.23,-3.42 -12.81,9.08 -5.64,13.6 9.72,6.13 27.88,7.02 35,-4.15 q 4.56,-7.14 1.47,-14.81 c -3.4,-8.45 -14.58,-10.96 -22.06,-14.21 -2.82,-1.23 -1.52,-5.63 1.66,-5.53 1.55,0.04 2.95,-0.13 4.42,0.38 3.43,1.2 9.18,4.72 12.43,2.55 6.16,-4.1 3.06,-11.58 -2.53,-14.38 -11.18,-5.59 -26.6,-3.66 -31.68,9.16"
       id="path42" />
    <path
       stroke="#0f2244"
       vector-effect="non-scaling-stroke"
       d="m 101.06,374.85 a 0.72,0.72 0 0 1 1.12,0 c 6.16,7.55 14.9,4.51 14.88,-5.1 q -0.03,-17.9 -0.07,-35.8 -0.01,-4.81 -1.4,-6.99 c -3.14,-4.94 -10.38,-3.92 -13.39,1.26 a 0.46,0.46 0 0 1 -0.74,0.08 q -5.03,-5.6 -12.71,-5.59 c -35.11,0.03 -31.97,62.46 3.51,57.12 q 5.41,-0.81 8.8,-4.98"
       id="path44" />
    <path
       stroke="#025970"
       vector-effect="non-scaling-stroke"
       d="m 258.19,338.06 c 2.51,0.22 7.76,3.63 11.1,2.57 4.57,-1.45 6.1,-7.77 3.8,-11.33 q -1.73,-2.67 -6.12,-4.39 c -10.35,-4.05 -22.46,-2.47 -30.34,5.51 -9.94,10.06 -10.65,28.31 -2.06,39.48 q 11.42,14.85 32.16,8.07 c 7.66,-2.51 10.76,-11.79 2.14,-15.89 q -0.45,-0.22 -0.93,-0.07 c -7.15,2.16 -15.33,6.23 -20.79,-1.3 -6.43,-8.88 -1.64,-23.77 11.04,-22.65"
       id="path46" />
    <path
       stroke="#025970"
       vector-effect="non-scaling-stroke"
       d="m 351.04,323.06 c -31.46,4.46 -30.99,54.73 2.2,56.94 7.43,0.49 25.71,-4.1 18.89,-14.9 -3.61,-5.72 -10.49,-0.77 -14.89,-0.13 -16.67,2.4 -18.4,-25.3 -2.52,-26.91 5.78,-0.59 15.24,7.26 18.26,-1.76 4.03,-12.01 -14.79,-14.26 -21.94,-13.24"
       id="path48" />
    <path
       stroke="#025970"
       vector-effect="non-scaling-stroke"
       d="m 321.01,331.39 a 7.6,7.6 0 0 0 -7.6,-7.6 h -0.48 a 7.6,7.6 0 0 0 -7.6,7.6 v 40.2 a 7.6,7.6 0 0 0 7.6,7.6 h 0.48 a 7.6,7.6 0 0 0 7.6,-7.6 v -40.2"
       id="path50" />
    <path
       stroke="#025970"
       vector-effect="non-scaling-stroke"
       d="m 452.2,333.88 a 10.06,10.06 0 0 0 -10.06,-10.06 10.06,10.06 0 0 0 -10.06,10.06 10.06,10.06 0 0 0 10.06,10.06 10.06,10.06 0 0 0 10.06,-10.06"
       id="path52" />
    <path
       stroke="#04a1d3"
       vector-effect="non-scaling-stroke"
       d="m 244.02,213.73 q 2.65,-3.63 3.55,-7.97 0.9,-4.41 0.15,-5.37"
       id="path54" />
    <path
       stroke="#034963"
       vector-effect="non-scaling-stroke"
       d="m 247.72,200.39 c -3.65,-10.78 -12.31,-19.07 -23.9,-15.28 -6.09,1.99 -10.49,6.88 -16.7,8.29 q -4.22,0.95 -9.27,0.9"
       id="path56" />
    <path
       stroke="#04a1d3"
       vector-effect="non-scaling-stroke"
       d="m 197.85,194.3 q -5.03,-1.75 -10.59,-5.08 -3.53,-2.11 -5.32,-5.84 a 1.19,1.18 87.8 0 0 -0.62,-0.58 q -0.73,-0.28 -1.5,0.04"
       id="path58" />
    <path
       stroke="#034963"
       vector-effect="non-scaling-stroke"
       d="m 179.82,182.84 q -2.64,-10.89 -0.79,-20.79"
       id="path60" />
    <path
       stroke="#04a1d3"
       vector-effect="non-scaling-stroke"
       d="m 179.03,162.05 q 5.84,-12.17 16.53,-14.22"
       id="path62" />
    <path
       stroke="#034963"
       vector-effect="non-scaling-stroke"
       d="m 195.56,147.83 q 6.79,-1.16 12.69,0.71 c 9.74,3.09 16.19,12.46 27.96,7.16 q 9.56,-4.3 11.57,-15.57"
       id="path64" />
    <path
       stroke="#04a1d3"
       vector-effect="non-scaling-stroke"
       d="m 247.78,140.13 q 0.68,-8.8 -5.46,-15.4"
       id="path66" />
    <path
       stroke="#034963"
       vector-effect="non-scaling-stroke"
       d="M 242.32,124.73 Q 231.45,113.19 215.57,110.14 183.53,104 160.55,126.32 c -41.41,40.24 -14.22,110.51 46.02,105.82 q 22.16,-1.72 37.46,-17.49 0.2,-0.21 0.23,-0.44 0.05,-0.41 -0.24,-0.48"
       id="path68" />
    <path
       stroke="#025970"
       vector-effect="non-scaling-stroke"
       d="m 242.32,124.73 c -29.15,-9.18 -58.01,7.12 -63.29,37.32"
       id="path70" />
    <path
       stroke="#025970"
       vector-effect="non-scaling-stroke"
       d="m 179.82,182.84 c 7.91,26.42 38.02,43.06 64.2,30.89"
       id="path72" />
    <path
       stroke="#025970"
       vector-effect="non-scaling-stroke"
       d="m 197.85,194.3 q 16.82,17.25 39.68,11.01 4.09,-1.11 10.19,-4.92"
       id="path74" />
    <path
       stroke="#025970"
       vector-effect="non-scaling-stroke"
       d="m 247.78,140.13 c -19.07,-12.67 -37.56,-8.48 -52.22,7.7"
       id="path76" />
    <path
       stroke="#0f2244"
       vector-effect="non-scaling-stroke"
       d="m 90.5262,365.029 a 13.6,10.96 89.3 0 0 10.793,-13.7329 13.6,10.96 89.3 0 0 -11.1254,-13.4651 13.6,10.96 89.3 0 0 -10.793,13.7329 13.6,10.96 89.3 0 0 11.1254,13.4651"
       id="path78" />
    <path
       stroke="#025970"
       vector-effect="non-scaling-stroke"
       d="m 450.46,333.91 a 8.33,8.33 0 0 0 -8.33,-8.33 8.33,8.33 0 0 0 -8.33,8.33 8.33,8.33 0 0 0 8.33,8.33 8.33,8.33 0 0 0 8.33,-8.33"
       id="path80" />
    <path
       stroke="#025970"
       vector-effect="non-scaling-stroke"
       d="m 441.78,335.26 q 1.68,1.43 2.52,3.67 0.5,1.34 2,0.97 0.57,-0.14 0.23,-0.62 l -2.4,-3.43 a 0.87,0.87 0 0 1 0.21,-1.22 c 6.77,-4.69 -1.46,-7.92 -5.84,-6.11 q -0.5,0.2 -0.5,0.74 v 9.7 a 1.0000841,0.99008333 -44.4 0 0 1.99,0.02 q 0.04,-1.45 -0.01,-2.85 a 1.09,1.09 0 0 1 1.8,-0.87"
       id="path82" />
    <path
       stroke="#025970"
       vector-effect="non-scaling-stroke"
       d="m 444.9816,330.9069 a 1.07,1.07 0 0 0 -1.0454,-1.094 l -2.8593,-0.0649 a 1.07,1.07 0 0 0 -1.094,1.0454 l -0.0245,1.0797 a 1.07,1.07 0 0 0 1.0454,1.094 l 2.8593,0.0649 a 1.07,1.07 0 0 0 1.094,-1.0454 l 0.0245,-1.0797"
       id="path84" />
  </g>
  <path
     fill="#03b1e0"
     d="m 257.77009,145.95003 c 1.40984,-4.10998 0.7397,-7.03009 1.53974,-11.1901 10.30006,5.69009 21.08001,3.25013 25.93008,-7.50989 3.6299,-8.03999 0.48998,-15.01994 -5.38987,-21.3201 C 264.64988,89.659993 241.8499,83.79 219.94003,85.179993 q -29.28011,1.849998 -50.48016,21.119977 -23.86986,14.04006 -34.97997,40.13997 -1.0898,2.55999 -1.35999,4.57008 -0.0701,0.47999 -0.54991,0.51992 -0.33004,0.0187 -0.71998,-0.24992 c 7.15997,-32.47002 29.36002,-60.210023 61.07982,-71.370018 28.65,-10.079995 64.02001,-7.150002 88.34996,12.55999 10.05022,8.130028 18.67008,20.509998 15.51005,34.039988 -4.21994,18.03997 -21.17998,25.92023 -39.01976,19.44005 z"
     id="path90"
     style="stroke-width:0.999954" />
  <path
     fill="#0591c6"
     d="m 259.30983,134.75993 c -0.80004,4.16001 -0.1299,7.08012 -1.53974,11.1901 q 0.53985,-0.25009 -0.2902,-0.22006 c -1.26004,-0.49997 -8.24003,-4.62997 -8.6,-4.58994 q -0.61,0.0595 -0.0698,0.35992 l 8.18003,4.48006 q 0.10998,1.34999 -0.99996,3.7399 -6.99003,15.15003 -22.16003,17.81005 c -9.29,1.64 -16.28006,-1.28005 -23.96999,-5.95 -4.96977,-3.01997 -10.30016,-4.72998 -15.21003,-1.44 -12.43998,8.33995 -2.91009,28.72995 11.83002,22.34999 3.38001,-1.45998 7.84006,-5.08 11.60979,-6.58996 8.91027,-3.57003 18.67018,-2.80002 26.64015,2.73997 q 8.76997,6.09004 12.90998,17.13997 l 1.23007,11.47009 q -1.71997,8.84994 -8.14993,15.70974 c -20.12999,21.48026 -52.98994,24.57014 -79.83,14.21024 q -24.82998,-11.37004 -34.90997,-37.50008 -0.16002,-0.41 -0.59004,-0.44998 l -1.18992,-0.11998 q -7.20005,-23.82999 -2.34998,-47.81994 0.3899,0.26974 0.71996,0.24992 0.47988,-0.0393 0.54988,-0.51992 0.2702,-2.01009 1.36,-4.57008 11.1101,-26.09991 34.98003,-40.13997 25.17997,-12.889985 52.69003,-5.43997 c 11.5799,3.12997 23.18998,9.47995 30.52993,18.95994 3.82997,4.95026 5.13003,9.7401 6.62988,14.93999 z m -15.28998,78.97002 q 2.65006,-3.62992 3.55002,-7.96998 0.89997,-4.41 0.15002,-5.37007 c -3.64995,-10.77994 -12.31004,-19.06992 -23.9,-15.28017 -6.08999,1.99022 -10.48999,6.88023 -16.69997,8.29017 q -4.21997,0.95 -9.27004,0.90002 -5.02991,-1.74994 -10.58996,-5.07976 -3.52996,-2.1102 -5.31999,-5.84016 a 1.1900002,1.1799989 87.8 0 0 -0.62006,-0.58003 q -0.72993,-0.28005 -1.49996,0.039 -2.63999,-10.88994 -0.78992,-20.78995 5.83986,-12.16993 16.52995,-14.21999 6.79001,-1.15991 12.68996,0.70999 c 9.74004,3.09002 16.19006,12.46003 27.96004,7.15996 q 9.55995,-4.29993 11.56998,-15.56998 0.6801,-8.79998 -5.46002,-15.40007 -10.87003,-11.53986 -26.75001,-14.58992 -32.03999,-6.14002 -55.0199,16.18003 c -41.41,40.23993 -14.22004,110.50983 46.01988,105.81987 q 22.16004,-1.71992 37.46029,-17.49001 0.19974,-0.20981 0.22972,-0.43992 0.0498,-0.41006 -0.24003,-0.48006 z"
     id="path94"
     style="stroke-width:0.999954" />
  <path
     fill="#03b1e0"
     d="m 242.3199,124.72992 q 6.14012,6.60002 5.46002,15.40006 c -19.07002,-12.67015 -37.56001,-8.48 -52.21998,7.69999 q -10.69009,2.05002 -16.52995,14.21999 c 5.27995,-30.19999 34.13984,-46.49977 63.28991,-37.32004 z"
     id="path98"
     style="stroke-width:0.999954" />
  <path
     fill="#1d4487"
     d="m 257.47989,145.72997 q -0.47996,-0.008 -0.49001,0.25004 l -8.17999,-4.48006 q -0.54,-0.30018 0.0699,-0.35992 c 0.35997,-0.0393 7.33998,4.08997 8.60001,4.58994 z"
     id="path102"
     style="stroke-width:0.999954" />
  <path
     fill="#03b1e0"
     d="m 197.84988,194.29992 q 16.82001,17.24987 39.67998,11.01022 4.09007,-1.11023 10.19003,-4.92024 0.74995,0.96007 -0.15002,5.37007 -0.89996,4.34006 -3.55002,7.96998 c -26.18012,12.17004 -56.28995,-4.47005 -64.19994,-30.89 q 0.77003,-0.32003 1.49996,-0.0391 a 1.1900002,1.1799989 87.8 0 1 0.62006,0.58001 q 1.79003,3.72993 5.31999,5.8401 5.56005,3.32992 10.58996,5.07985 z"
     id="path104"
     style="stroke-width:0.999954" />
  <path
     fill="#03b1e0"
     d="m 134.20001,199.09996 1.18992,0.11998 q 0.42997,0.0397 0.59003,0.44998 10.07998,26.13004 34.90997,37.50008 c 22.55004,18.4899 52.41003,23.23985 80.37992,15.39997 12.35002,-3.4601 37.99004,-16.78009 35.41008,-32.52 -2.30005,-14.00999 -15.28001,-20.84008 -27.81004,-12.79995 l -1.23004,-11.47009 q 8.17004,-3.75003 16.00006,-2.69996 c 15.38996,2.04996 26.25998,18.82994 23.62999,33.66994 -2.70986,15.27998 -20.85003,27.34002 -34.1501,32.6501 -53.18996,21.22982 -112.23978,-4.37008 -128.91979,-60.30005 z"
     id="path108"
     style="stroke-width:0.999954" />
  <path
     fill="#1d4487"
     d="m 188.01993,325.74996 q 0.008,0.80992 0.72002,0.42994 c 12.89993,-6.92001 31.22995,-4.06006 32.64985,13.49996 q 0.5501,6.80001 -0.008,29.69997 -0.12004,4.55981 -1.28005,6.51005 c -2.68993,4.51018 -10.85001,4.33995 -13.18993,-0.36002 q -0.94005,-1.89995 -0.92002,-6.68998 c 0.0193,-6.97991 1.56992,-22.83995 -1.74995,-28.63983 -3.27011,-5.71013 -12.49009,-5.31033 -15.23,0.71982 q -0.96011,2.10996 -0.98011,6.94007 -0.0497,10.21994 -0.0398,20.43989 0.008,4.84007 -0.92993,6.74003 c -4.01988,8.13009 -14.9399,3.95004 -14.98998,-4.85994 q -0.24999,-45.42002 -0.008,-61.17005 c 0.19008,-12.15998 15.94988,-11.45 15.92989,-1.50996 q -0.0292,9.32993 0.0301,18.25005 z"
     id="path112"
     style="stroke-width:0.999954" />
  <rect
     fill="#03b1e0"
     x="280.31"
     y="300.05991"
     width="15.679998"
     height="79.139954"
     rx="7.6700025"
     id="rect114"
     style="stroke-width:0.999954" />
  <circle
     fill="#03b1e0"
     cx="313.31985"
     cy="309.41995"
     r="9.4299946"
     id="circle116"
     style="stroke-width:0.999954" />
  <path
     fill="#03b1e0"
     d="m 396.77985,341.20993 q 7.21996,-6.99005 14.26001,-14.18006 c 3.61997,-3.70008 9.68996,-4.6 13.02992,-0.10998 4.97002,6.67002 -7.79995,16.28002 -12.29993,20.3298 a 0.84999983,0.84999983 0 0 0 -0.10003,1.1502 q 7.41998,9.40004 14.90992,19.01999 c 6.89003,8.8698 -6.78992,16.53015 -13.50998,7.77003 q -8.29998,-10.85005 -15.91987,-20.87 -1.25005,-1.64001 -1.20001,0.41996 c 0.12999,5.25003 1.14,16.42007 -1.36997,20.74 -3.97013,6.84 -14.52987,3.78 -14.55008,-4.29 q -0.0598,-29.71003 -0.0295,-59.42992 0.008,-4.99002 0.71003,-6.9201 c 1.86006,-5.08 8.21006,-6.37001 12.18999,-2.94991 2.53007,2.17998 3.15003,5.17985 3.09999,8.72973 q -0.20995,15.15022 0.14011,30.32022 0.0189,0.86999 0.64001,0.27004 z"
     id="path118"
     style="stroke-width:0.999954" />
  <path
     fill="#1d4487"
     d="m 31.559987,362.68987 c 5.499999,2.19004 12.199994,0.44005 18.739996,-1.48002 10.269994,-3.01993 14.05999,7.86005 6.759984,13.60003 -11.979986,9.42001 -33.559973,6.04997 -43.909967,-4.21 -14.729999,-14.59002 -14.6799996,-43.49995 0.949991,-57.53001 q 7.220004,-6.47002 17.670002,-8.28997 c 7.389984,-1.30001 27.03998,-0.85007 28.199986,10.06998 0.409998,3.81998 -1.419998,7.61001 -5.390002,8.34997 -5.029997,0.94009 -10.739997,-3.45996 -16.539992,-3.19992 -21.769992,0.95999 -24.27999,35.59988 -6.479998,42.68994 z"
     id="path120"
     style="stroke-width:0.999954" />
  <path
     fill="#1d4487"
     d="m 147.28996,359.15979 c -10.76005,-3.79986 -27.05021,-8.62992 -20.77993,-24.45001 5.07989,-12.81991 20.49992,-14.74988 31.67988,-9.1599 5.59003,2.80007 8.69025,10.28004 2.52997,14.38007 -3.2499,2.16995 -8.99989,-1.35005 -12.42993,-2.55009 -1.46998,-0.51002 -2.87002,-0.33995 -4.41996,-0.37998 -3.18025,-0.10017 -4.48005,4.30003 -1.66003,5.52998 7.48002,3.25025 18.66002,5.7602 22.05998,14.20998 q 3.08999,7.67007 -1.47003,14.80999 c -7.12001,11.17004 -25.27996,10.28004 -34.99999,4.15025 -7.16988,-4.52002 -3.58994,-17.02016 5.63997,-13.60022 4.95006,1.83005 9.82005,5.11992 15.31001,3.38004 a 1.129999,1.1399998 4 0 0 0.65998,-0.58012 q 2.11006,-4.24975 -2.11992,-5.73999 z"
     id="path122"
     style="stroke-width:0.999954" />
  <path
     fill="#1d4487"
     d="m 101.06004,374.84981 q -3.390123,4.17003 -8.800171,4.98005 C 56.779975,385.17008 53.639982,322.73991 88.74997,322.70989 q 7.680002,-0.008 12.71017,5.59002 a 0.45999984,0.45999984 0 0 0 0.73985,-0.0804 c 3.00991,-5.17991 10.24996,-6.19997 13.38993,-1.25997 q 1.39002,2.18 1.40003,6.98994 0.0391,17.90009 0.0699,35.80008 c 0.0192,9.60999 -8.72006,12.6499 -14.88009,5.1 a 0.71999992,0.71999992 0 0 0 -1.11992,0 z m -10.533875,-9.82093 a 13.599987,10.960014 89.3 0 0 10.792995,-13.73303 13.599987,10.960014 89.3 0 0 -11.125419,-13.46503 13.599987,10.960014 89.3 0 0 -10.792973,13.733 13.599987,10.960014 89.3 0 0 11.125397,13.46506 z"
     id="path124"
     style="stroke-width:0.999954" />
  <path
     fill="#03b1e0"
     d="m 258.18991,338.05986 c -12.68001,-1.11997 -17.47004,13.76997 -11.03999,22.65002 5.45997,7.53006 13.64001,3.46 20.79003,1.29996 q 0.47997,-0.14987 0.93,0.0699 c 8.6199,4.10001 5.51997,13.38002 -2.14009,15.89001 q -20.73996,6.77991 -32.15988,-8.06995 c -8.59003,-11.17023 -7.88007,-29.42005 2.05992,-39.48009 7.88001,-7.97998 19.99001,-9.55999 30.34,-5.51001 q 4.39004,1.72007 6.12001,4.39004 c 2.29995,3.55998 0.77016,9.88004 -3.80001,11.32986 -3.33985,1.06007 -8.58999,-2.35003 -11.09999,-2.56992 z"
     id="path126"
     style="stroke-width:0.999954" />
  <path
     fill="#03b1e0"
     d="m 353.23985,379.99986 c -33.18982,-2.20999 -33.65994,-52.47988 -2.19996,-56.93997 7.15003,-1.02 25.96991,1.22986 21.93994,13.23997 -3.01993,9.02009 -12.47996,1.17001 -18.25998,1.76 -15.87997,1.61005 -14.14985,29.31004 2.52001,26.91006 4.40004,-0.64007 11.28002,-5.59002 14.88998,0.12995 6.81994,10.80002 -11.45999,15.39006 -18.88999,14.89999 z"
     id="path128"
     style="stroke-width:0.999954" />
  <rect
     fill="#03b1e0"
     x="305.32986"
     y="323.78992"
     width="15.679998"
     height="55.399979"
     rx="7.5999961"
     id="rect130"
     style="stroke-width:0.999954" />
  <path
     fill="#03b1e0"
     d="m 452.19979,333.87983 a 10.06,10.06 0 0 1 -10.05998,10.06007 10.06,10.06 0 0 1 -10.05997,-10.06007 10.06,10.06 0 0 1 10.05997,-10.05998 10.06,10.06 0 0 1 10.05998,10.05998 z m -1.74004,0.0299 a 8.3299967,8.3299967 0 0 0 -8.32994,-8.3302 8.3299967,8.3299967 0 0 0 -8.32995,8.3302 8.3299967,8.3299967 0 0 0 8.32995,8.33 8.3299967,8.3299967 0 0 0 8.32994,-8.33 z"
     id="path132"
     style="stroke-width:0.999954" />
  <path
     fill="#03b1e0"
     d="m 441.77986,335.25984 a 1.0899999,1.0899999 0 0 0 -1.80023,0.86999 q 0.0499,1.40004 0.008,2.85017 a 0.99010781,1.0001089 45.6 0 1 -1.99005,-0.0197 v -9.69998 q 0,-0.5399 0.49997,-0.74002 c 4.38008,-1.8099 12.61001,1.42017 5.84012,6.11012 a 0.86999974,0.86999974 0 0 0 -0.21006,1.21999 l 2.39992,3.42995 q 0.34013,0.48006 -0.22992,0.62005 -1.50002,0.36993 -1.99994,-0.97007 -0.84015,-2.2399 -2.52003,-3.66996 z m 3.20153,-4.35303 a 1.0699991,1.0699991 0 0 0 -1.0456,-1.09398 l -2.85904,-0.0645 a 1.0699991,1.0699991 0 0 0 -1.09401,1.04535 l -0.0247,1.0797 a 1.0699991,1.0699991 0 0 0 1.0456,1.09393 l 2.85928,0.0649 a 1.0699991,1.0699991 0 0 0 1.09405,-1.04544 z"
     id="path136"
     style="stroke-width:0.999954" />
</svg>
